<mxfile host="Electron" modified="2023-12-14T19:41:43.736Z" agent="Mozilla/5.0 (Macintosh; Intel Mac OS X 10_15_7) AppleWebKit/537.36 (KHTML, like Gecko) draw.io/21.7.5 Chrome/114.0.5735.289 Electron/25.8.1 Safari/537.36" etag="c4qmMAF0neqKbI3WwMrt" version="21.7.5" type="device">
  <diagram name="Page-1" id="ppPvFQYFI4nOtKcirDJ-">
    <mxGraphModel dx="1026" dy="686" grid="1" gridSize="10" guides="1" tooltips="1" connect="1" arrows="1" fold="1" page="1" pageScale="1" pageWidth="827" pageHeight="1169" math="0" shadow="0">
      <root>
        <mxCell id="0" />
        <mxCell id="1" parent="0" />
        <mxCell id="F0977GEZqvtjPTLdtmIW-4" value="&lt;b&gt;Shell.ai Lab&lt;/b&gt;" style="fillColor=none;strokeColor=#147EBA;dashed=1;verticalAlign=top;fontStyle=0;fontColor=#147EBA;whiteSpace=wrap;html=1;" vertex="1" parent="1">
          <mxGeometry x="160" y="40" width="600" height="240" as="geometry" />
        </mxCell>
        <mxCell id="XUqRLwptFIJzBR0-x4ax-53" value="" style="fillColor=#EDF2FC;strokeColor=#6c8ebf;dashed=1;verticalAlign=top;fontStyle=0;whiteSpace=wrap;html=1;" parent="1" vertex="1">
          <mxGeometry x="500" y="80" width="220" height="120" as="geometry" />
        </mxCell>
        <mxCell id="XUqRLwptFIJzBR0-x4ax-52" value="" style="fillColor=#EDF2FC;strokeColor=#6c8ebf;dashed=1;verticalAlign=top;fontStyle=0;whiteSpace=wrap;html=1;" parent="1" vertex="1">
          <mxGeometry x="204" y="80" width="210" height="120" as="geometry" />
        </mxCell>
        <mxCell id="XUqRLwptFIJzBR0-x4ax-5" value="" style="shape=image;verticalLabelPosition=bottom;verticalAlign=top;imageAspect=0;aspect=fixed;image=data:image/svg+xml,PHN2ZyB4bWxucz0iaHR0cDovL3d3dy53My5vcmcvMjAwMC9zdmciIHZpZXdCb3g9IjAgMCA0OCA0OCI+PHBhdGggZmlsbD0iIzkzZDUwMCIgZD0iTTEyLjY4NSAyNy42MDFILjAxOWMuMDAyLjA2Mi4wMDQuMTI0LjAwOC4xODYuMDA1LjExOS4wMTMuMjM4LjAyLjM1N2wuMDEuMTUyYy4wMS4xMzguMDIyLjI3NS4wMzQuNDEzTC4xIDI4LjhhMTkuODA1IDE5LjgwNSAwIDAgMCAuMTIuOTk2Yy4xNDUgMS4wMS4zNjMgMi4wMS42NTQgMi45OTNsLjAwNC4wMTNhMTguNTYyIDE4LjU2MiAwIDAgMCAuMTYuNTE1Yy4wNDUuMTM5LjA5Mi4yNzcuMTQuNDE1bC4wMzYuMTA1Yy4wNDIuMTIuMDg2LjIzOS4xMy4zNThsLjA2Mi4xNjIuMTE1LjI5Ni4wOTEuMjIzLjA5Ny4yMzFjLjA0LjA5NC4wODMuMTg4LjEyNC4yODJsLjA3NS4xNjguMTU4LjMzNy4wNTIuMTA4Yy4wNjIuMTI5LjEyNi4yNTcuMTkuMzgzbC4wMy4wNmEyMC43NDMgMjAuNzQzIDAgMCAwIC4yMzIuNDM4Yy4wMTYuMDMuMDMzLjA1Ny4wNS4wODZsMTAuODE2LTYuNTE2LjA0LS4wMjRhOC42MjYgOC42MjYgMCAwIDEtLjc5MS0yLjgyOXoiLz48cGF0aCBmaWxsPSIjOTNkNTAwIiBkPSJtMS4wMyAzMy4yOTItLjQxMy4xMTYuMDA0LjAxM3oiLz48cGF0aCBmaWxsPSIjNGQ1YTMxIiBkPSJNMTUuNzk4IDMzLjQxNiA2Ljg0NiA0Mi4zN2MuMDQ2LjA0Mi4wOTEuMDg2LjEzOC4xMjcuMDg0LjA3Ni4xNjguMTUuMjUzLjIyNGwuMTMuMTE2Yy4xMDEuMDg3LjIwMy4xNzIuMzA1LjI1OGwuMDgyLjA2OGEyMC4yNzggMjAuMjc4IDAgMCAwIC43OS42MmMuNTM4LjQwMiAxLjA5NS43NzggMS42NyAxLjEyOWwuMDYuMDM2Yy4xMDkuMDY2LjIxOC4xMy4zMjguMTk0bC4yMDIuMTE1Yy4wNjMuMDM3LjEyNy4wNzIuMTkuMTA4YTI3LjMzMiAyNy4zMzIgMCAwIDAgLjM5OC4yMTRjLjMyNS4xNy42NTUuMzI3Ljk4Ny40NzlsLjMxNy0uNzY5IDQuNDg3LTEwLjg5Ny4wMTYtLjA0YTguNjU0IDguNjU0IDAgMCAxLTEuNDAxLS45MzV6Ii8+PHBhdGggZmlsbD0iIzZiYTQzYSIgZD0iTTE0Ljg2OSAzMi41MjVhOC4zMyA4LjMzIDAgMCAxLS41MS0uNjI3IDguNzk4IDguNzk4IDAgMCAxLS40NzktLjcxMUwzLjA1IDM3LjcxYy4xNjYuMjc3LjM0LjU0Ni41MTYuODEybC4wMTguMDI4LjAwNi4wMS4wMTcuMDI3LjAwMi4wMDIuMDQzLjA2NC4wMDMuMDA0LjAwMS4wMDFjLjE4OC4yNzguMzgxLjU1Mi41OC44MTlsLjAxNC4wMTcuMDEzLjAxN2ExOS42ODYgMTkuNjg2IDAgMCAwIC41NzkuNzM0bC4wNjguMDgyYy4wODUuMTAzLjE3LjIwNS4yNTguMzA2LjAzOC4wNDMuMDc3LjA4Ni4xMTQuMTMuMDc1LjA4NC4xNDkuMTY5LjIyNS4yNTJsLjEyNy4xMzguMDU4LjA2My4xNjcuMTguMDY5LjA3Yy4wOTguMTAyLjE5OC4yMDUuMy4zMDZsOC45MzQtOC45MzRhNy43MDMgNy43MDMgMCAwIDEtLjI5My0uMzE0eiIvPjxwYXRoIGZpbGw9IiM0ZDVhMzEiIGQ9Ik0yNi43MSAzMy40MTJhNi41OSA2LjU5IDAgMCAxLS4yOTguMjMxbC4wMjIuMDM4IDYuNTE1IDEwLjgxM2MuMzAyLS4xOTcuNi0uNC44OTEtLjYxMy42My0uNDY1IDEuMjQtLjk3IDEuODI5LTEuNTEybC04LjkyMy04LjkyMnoiLz48ZyBmaWxsPSIjOTNkNTAwIj48cGF0aCBkPSJtMzIuMTI3IDQ1LjAwOC4wMTUtLjAwOC0uMDE1LjAwOHptLS4wMDguMDA0ek0zMi4xNCA0NWMuMDI5LS4wMTYuMDU4LS4wMzEuMDg2LS4wNDhsLS4wMDItLjAwM2ExNC41MiAxNC41MiAwIDAgMC0uMDg0LjA1em0tLjAxMy4wMDgtLjAwNC4wMDQuMDA0LS4wMDR6bS0uMDIxLS4wMjIuMDEzLjAyNnptLjAyMS4wMjIuMDE1LS4wMDhhLjEyLjEyIDAgMCAwLS4wMTUuMDA4em0tLjAwOC4wMDQtLjAwNC4wMDR6bTAgMHptLjAwNCAwLS4wMDIuMDAxLjAwNi0uMDAzYS4wMS4wMSAwIDAgMS0uMDA0LjAwMnoiLz48cGF0aCBkPSJNMzIuMTQgNDVjLjAyOS0uMDE4LjA1Ny0uMDMyLjA4NS0uMDQ5LS4wMjguMDE3LS4wNTYuMDMyLS4wODUuMDQ4em0uMDg2LS4wNTJ2LjAwNC0uMDA0em0tLjExNi4wNjh6bS4wMDUgMGgtLjAwNXoiLz48cGF0aCBkPSJtMzIuMDAzIDQ0LjU4NC0uMjIxLS4zNjctNi4wOC0xMC4wOTRjLS4xMjQuMDc0LS4yNS4xNC0uMzc1LjIwOWE4LjYzNSA4LjYzNSAwIDAgMS00LjA4MyAxLjAzIDguNjEgOC42MSAwIDAgMS0yLjQ2LS4zNmMtLjEzNy0uMDQtLjI3LS4wOTQtLjQwNi0uMTQyLS4xMzUtLjA0Ny0uMjcxLS4wODgtLjQwNC0uMTQzbC00LjQ4NCAxMC44OS0uMTc2LjQyNi0uMTUuMzY2LS4wMDEuMDAxLjAzNS4wMTQuMDM3LjAxNGguMDAxbC4wMDkuMDA0Yy4xMDUuMDQzLjIxMi4wOC4zMTguMTIyLjEzNC4wNTIuMjY3LjEwNC40LjE1My4wNjkuMDI1LjEzNy4wNTQuMjA1LjA3OCAxLjQwNS40OTYgMi44NTguODQ0IDQuMzM2IDEuMDM4bC4xNzMuMDIzLjE4Mi4wMmMuMTE0LjAxMy4yMjguMDI2LjM0Mi4wMzdsLjA4NS4wMDhjLjE0LjAxMy4yOC4wMjUuNDIuMDM1LjA0Ny4wMDMuMDk1LjAwNS4xNDIuMDA5LjEyMy4wMDguMjQ1LjAxNi4zNjguMDIxbC4yMjUuMDEuMjkyLjAxYy4xNC4wMDMuMjgyLjAwNC40MjMuMDA1aC4xYzEuMTggMCAyLjM2LS4wOTcgMy41MjctLjI5M2wuMDYtLjAxYy4xMjMtLjAyLjI0Ni0uMDQ0LjM3LS4wNjZsLjIxLS4wNDEuMjE3LS4wNDZjLjEyLS4wMjUuMjQtLjA1MS4zNi0uMDc5bC4wNjYtLjAxNWEyMS4zNjIgMjEuMzYyIDAgMCAwIDUuMDk4LTEuOXYtLjAwMWMuMTA1LS4wNTYuMjA4LS4xMi4zMTMtLjE3Ni4xMjUtLjA2OS4yNS0uMTQuMzc0LS4yMS4wODYtLjA1LjE3My0uMDk1LjI1OC0uMTQ2bC4wMDMtLjAwM2MuMDAyIDAgLjAwMyAwIC4wMDUtLjAwMmwuMDAxLS4wMDEtLjAxNS0uMDI3LjAxNS4wMjcuMDAzLS4wMDEuMDA0LS4wMDIuMDE0LS4wMDkuMDg0LS4wNXptLTE2LjItMjQuNTA4YTguODUgOC44NSAwIDAgMSAuMjk5LS4yM2wtLjAyMy0uMDM4TDkuNTY1IDguOTk0Yy0uMzAyLjE5OC0uNjAxLjQwMS0uODkzLjYxNS0uNjMuNDY0LTEuMjQuOTY4LTEuODI2IDEuNTFsOC45MjIgOC45MjJ6Ii8+PC9nPjxwYXRoIGZpbGw9IiM0ZDVhMzEiIGQ9Ik02LjIyNyAxMS43MTJjLS4xMDIuMTAxLS4xOTguMjA2LS4yOTcuMzFzLS4yLjIwNC0uMjk2LjMwOWMtLjY2LjcxMy0xLjI2MiAxLjQ2LTEuODA1IDIuMjM3bC0uMDc4LjExMmEyMS4wMDUgMjEuMDA1IDAgMCAwLS40MzIuNjUyIDIxLjIwMyAyMS4yMDMgMCAwIDAtMy4zIDEwLjU1M2MtLjAwNS4xNDMtLjAwOC4yODYtLjAxMS40MjlTMCAyNi41OTkgMCAyNi43NDJoMTIuNjM3YzAtLjE0My4wMTMtLjI4NS4wMi0uNDI4cy4wMS0uMjg3LjAyNC0uNDI5YTguNTc2IDguNTc2IDAgMCAxIDEuOTA1LTQuNjAyYy4wOS0uMTEuMTkyLS4yMTIuMjg4LS4zMTguMDk2LS4xMDYuMTg1LS4yMTYuMjg4LS4zMTh6TTMyLjI5OSA4LjU4bC0uMDUyLS4wMzJjLS4xMTEtLjA2OC0uMjI0LS4xMzQtLjMzNi0uMmwtLjE5Ni0uMTFhMjYuNDY3IDI2LjQ2NyAwIDAgMC0uNTQtLjI5NWwtLjA1NS0uMDI5YTIxLjI1MSAyMS4yNTEgMCAwIDAtMi44NDktMS4yMzMgMjEuMzMgMjEuMzMgMCAwIDAtNC40MzUtMS4wMzVsLS4xNzgtLjAyYTE4LjI1OCAxOC4yNTggMCAwIDAtLjM0NC0uMDM3bC0uMDk2LS4wMDhhMjEuODUgMjEuODUgMCAwIDAtLjQwOC0uMDM0bC0uMTU5LS4wMWExMy42ODUgMTMuNjg1IDAgMCAwLS4zNS0uMDIxYy0uMDYzLS4wMDQtLjEyNS0uMDA1LS4xODctLjAwOHYxMi42NjhjLjY1LjA2NiAxLjI5NC4yMDUgMS45MTkuNDE3bDkuMzIyLTkuMzIyYy0uMzQ2LS4yNC0uNjk2LS40NzMtMS4wNTYtLjY5MnoiLz48cGF0aCBmaWxsPSIjNmJhNDNhIiBkPSJtMTAuNTEyIDguOTA1LS4yMjItLjM2OXptLS4yMjItLjM2OXptMTAuNTM5LTMuMDQyYy0uMTQzLjAwMy0uMjg2LjAwMy0uNDI4LjAwOS0uODk0LjAzNi0xLjc4Ny4xMjctMi42NzEuMjc1bC0uMDU5LjAxYy0uMTI0LjAyMi0uMjQ3LjA0NC0uMzcuMDY4bC0uMjEuMDRjLS4wNzMuMDE0LS4xNDYuMDMtLjIxOC4wNDUtLjEyLjAyNS0uMjQuMDUxLS4zNi4wOGwtLjA2Ni4wMTRhMjEuMzggMjEuMzggMCAwIDAtNS4wOTggMS45MDFjLS4xMDYuMDU2LS4yMDguMTItLjMxMy4xNzctLjEyNS4wNjgtLjI0OS4xMzktLjM3My4yMS0uMDkyLjA1My0uMTg2LjEwMi0uMjc4LjE1N2wtLjAwMy4wMDItLjAyLjAxLS4wNzIuMDQydi4wMDJsLjIyMi4zNjcgNi4zMDEgMTAuNDYxYy4xMjMtLjA3NC4yNS0uMTQxLjM3NS0uMjA4YTguNTkyIDguNTkyIDAgMCAxIDMuNjQtMS4wMmMuMTQzLS4wMDguMjg2LS4wMTUuNDMtLjAxNVY1LjQ4NWMtLjE0NCAwLS4yODYuMDA2LS40MjkuMDA5eiIvPjxwYXRoIGZpbGw9IiM0ZDVhMzEiIGQ9Ik00Mi40ODkgMjUuNjk5YTIzLjA0MSAyMy4wNDEgMCAwIDAtLjAyLS4zNDFsLS4wMTItLjE3Yy0uMDEtLjEzMy0uMDItLjI2Ny0uMDMzLS40LS4wMDItLjAzNS0uMDA2LS4wNy0uMDA5LS4xMDRhMjUuODggMjUuODggMCAwIDAtLjA1Mi0uNDgzYzAtLjAwNiAwLS4wMTItLjAwMi0uMDE3LS4wMi0uMTYtLjA0LS4zMjItLjA2NC0uNDgyIDAtLjAwNSAwLS4wMS0uMDAyLS4wMTVhMjEuMjM3IDIxLjIzNyAwIDAgMC0uNjUzLTIuOTg3bC0uMDA2LS4wMmEzMS4yMiAzMS4yMiAwIDAgMC0uMTQtLjQ1NWwtLjAyLS4wNmEyOC42MTMgMjguNjEzIDAgMCAwLS4xNzYtLjUyIDIxLjcyNiAyMS43MjYgMCAwIDAtLjQtMS4wMzljLS4wMy0uMDc1LS4wNjItLjE1LS4wOTQtLjIyNWEzNC4zMjcgMzQuMzI3IDAgMCAwLS4xMjYtLjI4OGwtLjA3My0uMTYyYTI3LjMzMiAyNy4zMzIgMCAwIDAtLjE2LS4zNDFjLS4wMTYtLjAzNS0uMDMyLS4wNy0uMDUtLjEwNGExNy40NCAxNy40NCAwIDAgMC0uMTkxLS4zODhsLS4wMjgtLjA1NGEyMi4xODggMjIuMTg4IDAgMCAwLS4yMjMtLjQyNGwtLjAwOC0uMDE1YTIxLjIyNiAyMS4yMjYgMCAwIDAtMS4yMS0xLjk2MmwtOS4zMjUgOS4zMjZjLjIxMi42MjUuMzUgMS4yNjkuNDE4IDEuOTE4aDEyLjY2N2wtLjAwOC0uMTg4eiIvPjxwYXRoIGZpbGw9IiM2YmE0M2EiIGQ9Ik0yOS44NzggMjYuNzQ0YzAgLjE0My0uMDE0LjI4Ni0uMDIuNDI5LS4wMDguMTQzLS4wMS4yODYtLjAyNC40MjhhOC41OCA4LjU4IDAgMCAxLTEuOTA2IDQuNjAzYy0uMDkuMTEtLjE5MS4yMTItLjI4OC4zMTgtLjA5Ni4xMDYtLjE4NS4yMTYtLjI4Ny4zMThsOC45MzUgOC45MzVjLjEwMS0uMTAyLjE5Ny0uMjA3LjI5Ni0uMzFzLjItLjIwNi4yOTYtLjMxYTIxLjMzMyAyMS4zMzMgMCAwIDAgMS44MS0yLjI0NGwuMDY0LS4wOTEuMTk2LS4yODljLjA1Ny0uMDg2LjExNC0uMTcyLjE3LS4yNi4wMjctLjA0LjA1NC0uMDg0LjA4LS4xMjZhMjEuMTk0IDIxLjE5NCAwIDAgMCAzLjI5NC0xMC41NDRjLjAwNS0uMTQzLjAwOC0uMjg2LjAxMS0uNDI5cy4wMDgtLjI4NS4wMDgtLjQyOEgyOS44Nzh6Ii8+PHBhdGggZmlsbD0iIzQyNDE0MyIgZD0iTTQ2LjI2OSAxLjczNmE1LjkxNyA1LjkxNyAwIDAgMC05LjQ4NiA2LjgxNEwyMy44ODcgMjEuNDQ1YTUuOTIgNS45MiAwIDAgMC02LjgxNSAxLjExNCA1LjkyIDUuOTIgMCAwIDAgOC4zNzIgOC4zNzIgNS45MTggNS45MTggMCAwIDAgMS4xMTQtNi44MTVsMTIuODk1LTEyLjg5NGE1LjkxOCA1LjkxOCAwIDAgMCA2LjgxNS05LjQ4NnoiLz48L3N2Zz4=" parent="1" vertex="1">
          <mxGeometry x="234" y="111" width="48" height="48" as="geometry" />
        </mxCell>
        <mxCell id="XUqRLwptFIJzBR0-x4ax-6" value="" style="shape=image;verticalLabelPosition=bottom;verticalAlign=top;imageAspect=0;aspect=fixed;image=data:image/svg+xml,PHN2ZyB4bWxucz0iaHR0cDovL3d3dy53My5vcmcvMjAwMC9zdmciIHZpZXdCb3g9IjAgMCA0OCA0OCI+PHBhdGggZmlsbD0iIzkzZDUwMCIgZD0iTTEyLjY4NSAyNy42MDFILjAxOWMuMDAyLjA2Mi4wMDQuMTI0LjAwOC4xODYuMDA1LjExOS4wMTMuMjM4LjAyLjM1N2wuMDEuMTUyYy4wMS4xMzguMDIyLjI3NS4wMzQuNDEzTC4xIDI4LjhhMTkuODA1IDE5LjgwNSAwIDAgMCAuMTIuOTk2Yy4xNDUgMS4wMS4zNjMgMi4wMS42NTQgMi45OTNsLjAwNC4wMTNhMTguNTYyIDE4LjU2MiAwIDAgMCAuMTYuNTE1Yy4wNDUuMTM5LjA5Mi4yNzcuMTQuNDE1bC4wMzYuMTA1Yy4wNDIuMTIuMDg2LjIzOS4xMy4zNThsLjA2Mi4xNjIuMTE1LjI5Ni4wOTEuMjIzLjA5Ny4yMzFjLjA0LjA5NC4wODMuMTg4LjEyNC4yODJsLjA3NS4xNjguMTU4LjMzNy4wNTIuMTA4Yy4wNjIuMTI5LjEyNi4yNTcuMTkuMzgzbC4wMy4wNmEyMC43NDMgMjAuNzQzIDAgMCAwIC4yMzIuNDM4Yy4wMTYuMDMuMDMzLjA1Ny4wNS4wODZsMTAuODE2LTYuNTE2LjA0LS4wMjRhOC42MjYgOC42MjYgMCAwIDEtLjc5MS0yLjgyOXoiLz48cGF0aCBmaWxsPSIjOTNkNTAwIiBkPSJtMS4wMyAzMy4yOTItLjQxMy4xMTYuMDA0LjAxM3oiLz48cGF0aCBmaWxsPSIjNGQ1YTMxIiBkPSJNMTUuNzk4IDMzLjQxNiA2Ljg0NiA0Mi4zN2MuMDQ2LjA0Mi4wOTEuMDg2LjEzOC4xMjcuMDg0LjA3Ni4xNjguMTUuMjUzLjIyNGwuMTMuMTE2Yy4xMDEuMDg3LjIwMy4xNzIuMzA1LjI1OGwuMDgyLjA2OGEyMC4yNzggMjAuMjc4IDAgMCAwIC43OS42MmMuNTM4LjQwMiAxLjA5NS43NzggMS42NyAxLjEyOWwuMDYuMDM2Yy4xMDkuMDY2LjIxOC4xMy4zMjguMTk0bC4yMDIuMTE1Yy4wNjMuMDM3LjEyNy4wNzIuMTkuMTA4YTI3LjMzMiAyNy4zMzIgMCAwIDAgLjM5OC4yMTRjLjMyNS4xNy42NTUuMzI3Ljk4Ny40NzlsLjMxNy0uNzY5IDQuNDg3LTEwLjg5Ny4wMTYtLjA0YTguNjU0IDguNjU0IDAgMCAxLTEuNDAxLS45MzV6Ii8+PHBhdGggZmlsbD0iIzZiYTQzYSIgZD0iTTE0Ljg2OSAzMi41MjVhOC4zMyA4LjMzIDAgMCAxLS41MS0uNjI3IDguNzk4IDguNzk4IDAgMCAxLS40NzktLjcxMUwzLjA1IDM3LjcxYy4xNjYuMjc3LjM0LjU0Ni41MTYuODEybC4wMTguMDI4LjAwNi4wMS4wMTcuMDI3LjAwMi4wMDIuMDQzLjA2NC4wMDMuMDA0LjAwMS4wMDFjLjE4OC4yNzguMzgxLjU1Mi41OC44MTlsLjAxNC4wMTcuMDEzLjAxN2ExOS42ODYgMTkuNjg2IDAgMCAwIC41NzkuNzM0bC4wNjguMDgyYy4wODUuMTAzLjE3LjIwNS4yNTguMzA2LjAzOC4wNDMuMDc3LjA4Ni4xMTQuMTMuMDc1LjA4NC4xNDkuMTY5LjIyNS4yNTJsLjEyNy4xMzguMDU4LjA2My4xNjcuMTguMDY5LjA3Yy4wOTguMTAyLjE5OC4yMDUuMy4zMDZsOC45MzQtOC45MzRhNy43MDMgNy43MDMgMCAwIDEtLjI5My0uMzE0eiIvPjxwYXRoIGZpbGw9IiM0ZDVhMzEiIGQ9Ik0yNi43MSAzMy40MTJhNi41OSA2LjU5IDAgMCAxLS4yOTguMjMxbC4wMjIuMDM4IDYuNTE1IDEwLjgxM2MuMzAyLS4xOTcuNi0uNC44OTEtLjYxMy42My0uNDY1IDEuMjQtLjk3IDEuODI5LTEuNTEybC04LjkyMy04LjkyMnoiLz48ZyBmaWxsPSIjOTNkNTAwIj48cGF0aCBkPSJtMzIuMTI3IDQ1LjAwOC4wMTUtLjAwOC0uMDE1LjAwOHptLS4wMDguMDA0ek0zMi4xNCA0NWMuMDI5LS4wMTYuMDU4LS4wMzEuMDg2LS4wNDhsLS4wMDItLjAwM2ExNC41MiAxNC41MiAwIDAgMC0uMDg0LjA1em0tLjAxMy4wMDgtLjAwNC4wMDQuMDA0LS4wMDR6bS0uMDIxLS4wMjIuMDEzLjAyNnptLjAyMS4wMjIuMDE1LS4wMDhhLjEyLjEyIDAgMCAwLS4wMTUuMDA4em0tLjAwOC4wMDQtLjAwNC4wMDR6bTAgMHptLjAwNCAwLS4wMDIuMDAxLjAwNi0uMDAzYS4wMS4wMSAwIDAgMS0uMDA0LjAwMnoiLz48cGF0aCBkPSJNMzIuMTQgNDVjLjAyOS0uMDE4LjA1Ny0uMDMyLjA4NS0uMDQ5LS4wMjguMDE3LS4wNTYuMDMyLS4wODUuMDQ4em0uMDg2LS4wNTJ2LjAwNC0uMDA0em0tLjExNi4wNjh6bS4wMDUgMGgtLjAwNXoiLz48cGF0aCBkPSJtMzIuMDAzIDQ0LjU4NC0uMjIxLS4zNjctNi4wOC0xMC4wOTRjLS4xMjQuMDc0LS4yNS4xNC0uMzc1LjIwOWE4LjYzNSA4LjYzNSAwIDAgMS00LjA4MyAxLjAzIDguNjEgOC42MSAwIDAgMS0yLjQ2LS4zNmMtLjEzNy0uMDQtLjI3LS4wOTQtLjQwNi0uMTQyLS4xMzUtLjA0Ny0uMjcxLS4wODgtLjQwNC0uMTQzbC00LjQ4NCAxMC44OS0uMTc2LjQyNi0uMTUuMzY2LS4wMDEuMDAxLjAzNS4wMTQuMDM3LjAxNGguMDAxbC4wMDkuMDA0Yy4xMDUuMDQzLjIxMi4wOC4zMTguMTIyLjEzNC4wNTIuMjY3LjEwNC40LjE1My4wNjkuMDI1LjEzNy4wNTQuMjA1LjA3OCAxLjQwNS40OTYgMi44NTguODQ0IDQuMzM2IDEuMDM4bC4xNzMuMDIzLjE4Mi4wMmMuMTE0LjAxMy4yMjguMDI2LjM0Mi4wMzdsLjA4NS4wMDhjLjE0LjAxMy4yOC4wMjUuNDIuMDM1LjA0Ny4wMDMuMDk1LjAwNS4xNDIuMDA5LjEyMy4wMDguMjQ1LjAxNi4zNjguMDIxbC4yMjUuMDEuMjkyLjAxYy4xNC4wMDMuMjgyLjAwNC40MjMuMDA1aC4xYzEuMTggMCAyLjM2LS4wOTcgMy41MjctLjI5M2wuMDYtLjAxYy4xMjMtLjAyLjI0Ni0uMDQ0LjM3LS4wNjZsLjIxLS4wNDEuMjE3LS4wNDZjLjEyLS4wMjUuMjQtLjA1MS4zNi0uMDc5bC4wNjYtLjAxNWEyMS4zNjIgMjEuMzYyIDAgMCAwIDUuMDk4LTEuOXYtLjAwMWMuMTA1LS4wNTYuMjA4LS4xMi4zMTMtLjE3Ni4xMjUtLjA2OS4yNS0uMTQuMzc0LS4yMS4wODYtLjA1LjE3My0uMDk1LjI1OC0uMTQ2bC4wMDMtLjAwM2MuMDAyIDAgLjAwMyAwIC4wMDUtLjAwMmwuMDAxLS4wMDEtLjAxNS0uMDI3LjAxNS4wMjcuMDAzLS4wMDEuMDA0LS4wMDIuMDE0LS4wMDkuMDg0LS4wNXptLTE2LjItMjQuNTA4YTguODUgOC44NSAwIDAgMSAuMjk5LS4yM2wtLjAyMy0uMDM4TDkuNTY1IDguOTk0Yy0uMzAyLjE5OC0uNjAxLjQwMS0uODkzLjYxNS0uNjMuNDY0LTEuMjQuOTY4LTEuODI2IDEuNTFsOC45MjIgOC45MjJ6Ii8+PC9nPjxwYXRoIGZpbGw9IiM0ZDVhMzEiIGQ9Ik02LjIyNyAxMS43MTJjLS4xMDIuMTAxLS4xOTguMjA2LS4yOTcuMzFzLS4yLjIwNC0uMjk2LjMwOWMtLjY2LjcxMy0xLjI2MiAxLjQ2LTEuODA1IDIuMjM3bC0uMDc4LjExMmEyMS4wMDUgMjEuMDA1IDAgMCAwLS40MzIuNjUyIDIxLjIwMyAyMS4yMDMgMCAwIDAtMy4zIDEwLjU1M2MtLjAwNS4xNDMtLjAwOC4yODYtLjAxMS40MjlTMCAyNi41OTkgMCAyNi43NDJoMTIuNjM3YzAtLjE0My4wMTMtLjI4NS4wMi0uNDI4cy4wMS0uMjg3LjAyNC0uNDI5YTguNTc2IDguNTc2IDAgMCAxIDEuOTA1LTQuNjAyYy4wOS0uMTEuMTkyLS4yMTIuMjg4LS4zMTguMDk2LS4xMDYuMTg1LS4yMTYuMjg4LS4zMTh6TTMyLjI5OSA4LjU4bC0uMDUyLS4wMzJjLS4xMTEtLjA2OC0uMjI0LS4xMzQtLjMzNi0uMmwtLjE5Ni0uMTFhMjYuNDY3IDI2LjQ2NyAwIDAgMC0uNTQtLjI5NWwtLjA1NS0uMDI5YTIxLjI1MSAyMS4yNTEgMCAwIDAtMi44NDktMS4yMzMgMjEuMzMgMjEuMzMgMCAwIDAtNC40MzUtMS4wMzVsLS4xNzgtLjAyYTE4LjI1OCAxOC4yNTggMCAwIDAtLjM0NC0uMDM3bC0uMDk2LS4wMDhhMjEuODUgMjEuODUgMCAwIDAtLjQwOC0uMDM0bC0uMTU5LS4wMWExMy42ODUgMTMuNjg1IDAgMCAwLS4zNS0uMDIxYy0uMDYzLS4wMDQtLjEyNS0uMDA1LS4xODctLjAwOHYxMi42NjhjLjY1LjA2NiAxLjI5NC4yMDUgMS45MTkuNDE3bDkuMzIyLTkuMzIyYy0uMzQ2LS4yNC0uNjk2LS40NzMtMS4wNTYtLjY5MnoiLz48cGF0aCBmaWxsPSIjNmJhNDNhIiBkPSJtMTAuNTEyIDguOTA1LS4yMjItLjM2OXptLS4yMjItLjM2OXptMTAuNTM5LTMuMDQyYy0uMTQzLjAwMy0uMjg2LjAwMy0uNDI4LjAwOS0uODk0LjAzNi0xLjc4Ny4xMjctMi42NzEuMjc1bC0uMDU5LjAxYy0uMTI0LjAyMi0uMjQ3LjA0NC0uMzcuMDY4bC0uMjEuMDRjLS4wNzMuMDE0LS4xNDYuMDMtLjIxOC4wNDUtLjEyLjAyNS0uMjQuMDUxLS4zNi4wOGwtLjA2Ni4wMTRhMjEuMzggMjEuMzggMCAwIDAtNS4wOTggMS45MDFjLS4xMDYuMDU2LS4yMDguMTItLjMxMy4xNzctLjEyNS4wNjgtLjI0OS4xMzktLjM3My4yMS0uMDkyLjA1My0uMTg2LjEwMi0uMjc4LjE1N2wtLjAwMy4wMDItLjAyLjAxLS4wNzIuMDQydi4wMDJsLjIyMi4zNjcgNi4zMDEgMTAuNDYxYy4xMjMtLjA3NC4yNS0uMTQxLjM3NS0uMjA4YTguNTkyIDguNTkyIDAgMCAxIDMuNjQtMS4wMmMuMTQzLS4wMDguMjg2LS4wMTUuNDMtLjAxNVY1LjQ4NWMtLjE0NCAwLS4yODYuMDA2LS40MjkuMDA5eiIvPjxwYXRoIGZpbGw9IiM0ZDVhMzEiIGQ9Ik00Mi40ODkgMjUuNjk5YTIzLjA0MSAyMy4wNDEgMCAwIDAtLjAyLS4zNDFsLS4wMTItLjE3Yy0uMDEtLjEzMy0uMDItLjI2Ny0uMDMzLS40LS4wMDItLjAzNS0uMDA2LS4wNy0uMDA5LS4xMDRhMjUuODggMjUuODggMCAwIDAtLjA1Mi0uNDgzYzAtLjAwNiAwLS4wMTItLjAwMi0uMDE3LS4wMi0uMTYtLjA0LS4zMjItLjA2NC0uNDgyIDAtLjAwNSAwLS4wMS0uMDAyLS4wMTVhMjEuMjM3IDIxLjIzNyAwIDAgMC0uNjUzLTIuOTg3bC0uMDA2LS4wMmEzMS4yMiAzMS4yMiAwIDAgMC0uMTQtLjQ1NWwtLjAyLS4wNmEyOC42MTMgMjguNjEzIDAgMCAwLS4xNzYtLjUyIDIxLjcyNiAyMS43MjYgMCAwIDAtLjQtMS4wMzljLS4wMy0uMDc1LS4wNjItLjE1LS4wOTQtLjIyNWEzNC4zMjcgMzQuMzI3IDAgMCAwLS4xMjYtLjI4OGwtLjA3My0uMTYyYTI3LjMzMiAyNy4zMzIgMCAwIDAtLjE2LS4zNDFjLS4wMTYtLjAzNS0uMDMyLS4wNy0uMDUtLjEwNGExNy40NCAxNy40NCAwIDAgMC0uMTkxLS4zODhsLS4wMjgtLjA1NGEyMi4xODggMjIuMTg4IDAgMCAwLS4yMjMtLjQyNGwtLjAwOC0uMDE1YTIxLjIyNiAyMS4yMjYgMCAwIDAtMS4yMS0xLjk2MmwtOS4zMjUgOS4zMjZjLjIxMi42MjUuMzUgMS4yNjkuNDE4IDEuOTE4aDEyLjY2N2wtLjAwOC0uMTg4eiIvPjxwYXRoIGZpbGw9IiM2YmE0M2EiIGQ9Ik0yOS44NzggMjYuNzQ0YzAgLjE0My0uMDE0LjI4Ni0uMDIuNDI5LS4wMDguMTQzLS4wMS4yODYtLjAyNC40MjhhOC41OCA4LjU4IDAgMCAxLTEuOTA2IDQuNjAzYy0uMDkuMTEtLjE5MS4yMTItLjI4OC4zMTgtLjA5Ni4xMDYtLjE4NS4yMTYtLjI4Ny4zMThsOC45MzUgOC45MzVjLjEwMS0uMTAyLjE5Ny0uMjA3LjI5Ni0uMzFzLjItLjIwNi4yOTYtLjMxYTIxLjMzMyAyMS4zMzMgMCAwIDAgMS44MS0yLjI0NGwuMDY0LS4wOTEuMTk2LS4yODljLjA1Ny0uMDg2LjExNC0uMTcyLjE3LS4yNi4wMjctLjA0LjA1NC0uMDg0LjA4LS4xMjZhMjEuMTk0IDIxLjE5NCAwIDAgMCAzLjI5NC0xMC41NDRjLjAwNS0uMTQzLjAwOC0uMjg2LjAxMS0uNDI5cy4wMDgtLjI4NS4wMDgtLjQyOEgyOS44Nzh6Ii8+PHBhdGggZmlsbD0iIzQyNDE0MyIgZD0iTTQ2LjI2OSAxLjczNmE1LjkxNyA1LjkxNyAwIDAgMC05LjQ4NiA2LjgxNEwyMy44ODcgMjEuNDQ1YTUuOTIgNS45MiAwIDAgMC02LjgxNSAxLjExNCA1LjkyIDUuOTIgMCAwIDAgOC4zNzIgOC4zNzIgNS45MTggNS45MTggMCAwIDAgMS4xMTQtNi44MTVsMTIuODk1LTEyLjg5NGE1LjkxOCA1LjkxOCAwIDAgMCA2LjgxNS05LjQ4NnoiLz48L3N2Zz4=" parent="1" vertex="1">
          <mxGeometry x="630" y="111" width="48" height="48" as="geometry" />
        </mxCell>
        <mxCell id="XUqRLwptFIJzBR0-x4ax-7" value="External API" style="text;html=1;strokeColor=none;fillColor=none;align=center;verticalAlign=middle;whiteSpace=wrap;rounded=0;" parent="1" vertex="1">
          <mxGeometry x="222" y="170" width="60" height="30" as="geometry" />
        </mxCell>
        <mxCell id="XUqRLwptFIJzBR0-x4ax-8" value="API Implementation" style="text;html=1;strokeColor=none;fillColor=none;align=center;verticalAlign=middle;whiteSpace=wrap;rounded=0;" parent="1" vertex="1">
          <mxGeometry x="314" y="170" width="60" height="30" as="geometry" />
        </mxCell>
        <mxCell id="XUqRLwptFIJzBR0-x4ax-9" value="API Implementation" style="text;html=1;strokeColor=none;fillColor=none;align=center;verticalAlign=middle;whiteSpace=wrap;rounded=0;" parent="1" vertex="1">
          <mxGeometry x="517" y="166" width="60" height="30" as="geometry" />
        </mxCell>
        <mxCell id="XUqRLwptFIJzBR0-x4ax-10" value="Internal API" style="text;html=1;strokeColor=none;fillColor=none;align=center;verticalAlign=middle;whiteSpace=wrap;rounded=0;" parent="1" vertex="1">
          <mxGeometry x="630" y="166" width="60" height="30" as="geometry" />
        </mxCell>
        <mxCell id="XUqRLwptFIJzBR0-x4ax-15" value="" style="endArrow=classic;startArrow=classic;html=1;rounded=0;" parent="1" edge="1" source="_tmj6KruEa42xJ_8e1n5-3">
          <mxGeometry width="50" height="50" relative="1" as="geometry">
            <mxPoint x="284" y="140" as="sourcePoint" />
            <mxPoint x="344" y="140" as="targetPoint" />
          </mxGeometry>
        </mxCell>
        <mxCell id="XUqRLwptFIJzBR0-x4ax-25" value="" style="sketch=0;outlineConnect=0;fontColor=#232F3E;gradientColor=none;fillColor=#232F3D;strokeColor=none;dashed=0;verticalLabelPosition=bottom;verticalAlign=top;align=center;html=1;fontSize=12;fontStyle=0;aspect=fixed;pointerEvents=1;shape=mxgraph.aws4.user;" parent="1" vertex="1">
          <mxGeometry x="85" y="97" width="50" height="50" as="geometry" />
        </mxCell>
        <mxCell id="XUqRLwptFIJzBR0-x4ax-27" value="" style="sketch=0;outlineConnect=0;fontColor=#232F3E;gradientColor=none;fillColor=#232F3D;strokeColor=none;dashed=0;verticalLabelPosition=bottom;verticalAlign=top;align=center;html=1;fontSize=12;fontStyle=0;aspect=fixed;pointerEvents=1;shape=mxgraph.aws4.user;" parent="1" vertex="1">
          <mxGeometry x="812" y="110" width="50" height="50" as="geometry" />
        </mxCell>
        <mxCell id="XUqRLwptFIJzBR0-x4ax-28" value="External Partner" style="text;html=1;strokeColor=none;fillColor=none;align=center;verticalAlign=middle;whiteSpace=wrap;rounded=0;" parent="1" vertex="1">
          <mxGeometry x="80" y="157" width="60" height="30" as="geometry" />
        </mxCell>
        <mxCell id="XUqRLwptFIJzBR0-x4ax-29" value="Internal Shell User" style="text;html=1;strokeColor=none;fillColor=none;align=center;verticalAlign=middle;whiteSpace=wrap;rounded=0;" parent="1" vertex="1">
          <mxGeometry x="807" y="170" width="60" height="30" as="geometry" />
        </mxCell>
        <mxCell id="XUqRLwptFIJzBR0-x4ax-43" value="" style="endArrow=classic;startArrow=classic;html=1;rounded=0;" parent="1" edge="1">
          <mxGeometry width="50" height="50" relative="1" as="geometry">
            <mxPoint x="570" y="140" as="sourcePoint" />
            <mxPoint x="620" y="140" as="targetPoint" />
          </mxGeometry>
        </mxCell>
        <mxCell id="XUqRLwptFIJzBR0-x4ax-48" value="" style="endArrow=classic;html=1;rounded=0;exitX=1.16;exitY=0.2;exitDx=0;exitDy=0;exitPerimeter=0;" parent="1" edge="1">
          <mxGeometry width="50" height="50" relative="1" as="geometry">
            <mxPoint x="139" y="120" as="sourcePoint" />
            <mxPoint x="224" y="120" as="targetPoint" />
          </mxGeometry>
        </mxCell>
        <mxCell id="XUqRLwptFIJzBR0-x4ax-49" value="" style="endArrow=classic;html=1;rounded=0;exitX=0.193;exitY=0.394;exitDx=0;exitDy=0;exitPerimeter=0;dashed=1;" parent="1" edge="1">
          <mxGeometry width="50" height="50" relative="1" as="geometry">
            <mxPoint x="221.99999999999991" y="140" as="sourcePoint" />
            <mxPoint x="139.88727272727274" y="140.0156643890257" as="targetPoint" />
          </mxGeometry>
        </mxCell>
        <mxCell id="XUqRLwptFIJzBR0-x4ax-50" value="" style="endArrow=classic;html=1;rounded=0;startArrow=none;startFill=0;" parent="1" edge="1">
          <mxGeometry width="50" height="50" relative="1" as="geometry">
            <mxPoint x="810" y="125" as="sourcePoint" />
            <mxPoint x="685" y="124.5" as="targetPoint" />
          </mxGeometry>
        </mxCell>
        <mxCell id="XUqRLwptFIJzBR0-x4ax-51" value="" style="endArrow=classic;html=1;rounded=0;exitX=0.193;exitY=0.394;exitDx=0;exitDy=0;exitPerimeter=0;dashed=1;" parent="1" edge="1">
          <mxGeometry width="50" height="50" relative="1" as="geometry">
            <mxPoint x="685.8872727272727" y="144.5156643890257" as="sourcePoint" />
            <mxPoint x="810" y="145" as="targetPoint" />
          </mxGeometry>
        </mxCell>
        <mxCell id="_tmj6KruEa42xJ_8e1n5-5" value="" style="shape=image;verticalLabelPosition=bottom;verticalAlign=top;imageAspect=0;aspect=fixed;image=data:image/svg+xml,PHN2ZyB4bWxucz0iaHR0cDovL3d3dy53My5vcmcvMjAwMC9zdmciIHZpZXdCb3g9IjAgMCA0OCA0OCI+PGRlZnM+PGxpbmVhckdyYWRpZW50IGlkPSJweXRob25fc3ZnX19iIiB4MT0iMTUwLjk2IiB4Mj0iMTEyLjAzIiB5MT0iMTkyLjM1IiB5Mj0iMTM3LjI3IiBncmFkaWVudFRyYW5zZm9ybT0ibWF0cml4KC4yNDAyNSAwIDAgLjI0MjU3IC02LjE0IC00Ljk5OCkiIGdyYWRpZW50VW5pdHM9InVzZXJTcGFjZU9uVXNlIj48c3RvcCBvZmZzZXQ9IjAiIHN0b3AtY29sb3I9IiNmZmQ0M2IiLz48c3RvcCBvZmZzZXQ9IjEiIHN0b3AtY29sb3I9IiNmZmU4NzMiLz48L2xpbmVhckdyYWRpZW50PjxsaW5lYXJHcmFkaWVudCBpZD0icHl0aG9uX3N2Z19fYSIgeDE9IjI2LjY0OSIgeDI9IjEzNS42NiIgeTE9IjIwLjYwNCIgeTI9IjExNC40IiBncmFkaWVudFRyYW5zZm9ybT0ibWF0cml4KC4yNDAyNSAwIDAgLjI0MjU3IC02LjE0IC00Ljk5OCkiIGdyYWRpZW50VW5pdHM9InVzZXJTcGFjZU9uVXNlIj48c3RvcCBvZmZzZXQ9IjAiIHN0b3AtY29sb3I9IiM1YTlmZDQiLz48c3RvcCBvZmZzZXQ9IjEiIHN0b3AtY29sb3I9IiMzMDY5OTgiLz48L2xpbmVhckdyYWRpZW50PjwvZGVmcz48cGF0aCBmaWxsPSJ1cmwoI3B5dGhvbl9zdmdfX2EpIiBkPSJNMjMuNzE3IDBhMzIuNjk3IDMyLjY5NyAwIDAgMC01LjQ3Mi40NjdjLTQuODQ2Ljg1Ny01LjcyNSAyLjY0OC01LjcyNSA1Ljk1M3Y0LjM2NGgxMS40NXYxLjQ1NUg4LjIyMmMtMy4zMjggMC02LjI0MyAyLTcuMTU0IDUuODA2LTEuMDUyIDQuMzYyLTEuMDk5IDcuMDgzIDAgMTEuNjM3LjgxNSAzLjM5MSAyLjc1NyA1LjgwNyA2LjA4NiA1LjgwN2gzLjkzN3YtNS4yMzRjMC0zLjc4IDMuMjctNy4xMTQgNy4xNTQtNy4xMTRoMTEuNDM4YzMuMTg0IDAgNS43MjUtMi42MiA1LjcyNS01LjgxOFY2LjQxOWMwLTMuMTA0LTIuNjE4LTUuNDM2LTUuNzI1LTUuOTUzYTM1LjcxNyAzNS43MTcgMCAwIDAtNS45NjctLjQ2N3ptLTYuMTkyIDMuNTFjMS4xODIgMCAyLjE0OC45ODMgMi4xNDggMi4xODlhMi4xNjQgMi4xNjQgMCAwIDEtMi4xNDggMi4xNzYgMi4xNjIgMi4xNjIgMCAwIDEtMi4xNS0yLjE3NmMwLTEuMjA3Ljk2Mi0yLjE4OCAyLjE1LTIuMTg4eiIgdHJhbnNmb3JtPSJ0cmFuc2xhdGUoLjAwMSAuMDAyKSBzY2FsZSguOTk5OTcpIi8+PHBhdGggZmlsbD0idXJsKCNweXRob25fc3ZnX19iKSIgZD0iTTM2LjgzNyAxMi4yMzl2NS4wODVjMCAzLjk0Mi0zLjM0MyA3LjI2Mi03LjE1MyA3LjI2MkgxOC4yNDZjLTMuMTM0IDAtNS43MjUgMi42OC01LjcyNSA1LjgxOHYxMC45MDRjMCAzLjEwNCAyLjY5OCA0LjkyOCA1LjcyNSA1LjgxOSAzLjYyNCAxLjA2NiA3LjEgMS4yNTggMTEuNDM4IDAgMi44ODMtLjgzNCA1LjcyNS0yLjUxNCA1LjcyNS01LjgxOXYtNC4zNjRIMjMuOTdWMzUuNDloMTcuMTY1YzMuMzI3IDAgNC41NjctMi4zMjIgNS43MjUtNS44MDYgMS4xOTYtMy41ODYgMS4xNDQtNy4wMzYgMC0xMS42MzctLjgyMi0zLjMxMy0yLjM5My01LjgwNy01LjcyNS01LjgwN3ptLTYuNDMzIDI3LjYxNGMxLjE4NiAwIDIuMTQ4Ljk3MyAyLjE0OCAyLjE3NSAwIDEuMjA4LS45NiAyLjE4OS0yLjE0OCAyLjE4OS0xLjE4MyAwLTIuMTQ5LS45ODMtMi4xNDktMi4xOSAwLTEuMjAxLjk2Ni0yLjE3NCAyLjE0OS0yLjE3NHoiIHRyYW5zZm9ybT0idHJhbnNsYXRlKC4wMDEgLjAwMikgc2NhbGUoLjk5OTk3KSIvPjwvc3ZnPg==" parent="1" vertex="1">
          <mxGeometry x="517" y="118" width="48" height="48" as="geometry" />
        </mxCell>
        <mxCell id="_tmj6KruEa42xJ_8e1n5-6" value="&lt;b&gt;Azure@Shell&lt;/b&gt;" style="text;html=1;strokeColor=none;fillColor=none;align=center;verticalAlign=middle;whiteSpace=wrap;rounded=0;" parent="1" vertex="1">
          <mxGeometry x="694.67" y="10" width="60" height="30" as="geometry" />
        </mxCell>
        <mxCell id="F0977GEZqvtjPTLdtmIW-1" value="" style="image;aspect=fixed;html=1;points=[];align=center;fontSize=12;image=img/lib/azure2/compute/Function_Apps.svg;" vertex="1" parent="1">
          <mxGeometry x="364" y="80" width="45.33" height="40" as="geometry" />
        </mxCell>
        <mxCell id="F0977GEZqvtjPTLdtmIW-2" value="" style="endArrow=classic;startArrow=classic;html=1;rounded=0;" edge="1" parent="1" target="_tmj6KruEa42xJ_8e1n5-3">
          <mxGeometry width="50" height="50" relative="1" as="geometry">
            <mxPoint x="284" y="140" as="sourcePoint" />
            <mxPoint x="344" y="140" as="targetPoint" />
          </mxGeometry>
        </mxCell>
        <mxCell id="_tmj6KruEa42xJ_8e1n5-3" value="" style="shape=image;verticalLabelPosition=bottom;verticalAlign=top;imageAspect=0;aspect=fixed;image=data:image/svg+xml,PHN2ZyB4bWxucz0iaHR0cDovL3d3dy53My5vcmcvMjAwMC9zdmciIHZpZXdCb3g9IjAgMCA0OCA0OCI+PGRlZnM+PGxpbmVhckdyYWRpZW50IGlkPSJweXRob25fc3ZnX19iIiB4MT0iMTUwLjk2IiB4Mj0iMTEyLjAzIiB5MT0iMTkyLjM1IiB5Mj0iMTM3LjI3IiBncmFkaWVudFRyYW5zZm9ybT0ibWF0cml4KC4yNDAyNSAwIDAgLjI0MjU3IC02LjE0IC00Ljk5OCkiIGdyYWRpZW50VW5pdHM9InVzZXJTcGFjZU9uVXNlIj48c3RvcCBvZmZzZXQ9IjAiIHN0b3AtY29sb3I9IiNmZmQ0M2IiLz48c3RvcCBvZmZzZXQ9IjEiIHN0b3AtY29sb3I9IiNmZmU4NzMiLz48L2xpbmVhckdyYWRpZW50PjxsaW5lYXJHcmFkaWVudCBpZD0icHl0aG9uX3N2Z19fYSIgeDE9IjI2LjY0OSIgeDI9IjEzNS42NiIgeTE9IjIwLjYwNCIgeTI9IjExNC40IiBncmFkaWVudFRyYW5zZm9ybT0ibWF0cml4KC4yNDAyNSAwIDAgLjI0MjU3IC02LjE0IC00Ljk5OCkiIGdyYWRpZW50VW5pdHM9InVzZXJTcGFjZU9uVXNlIj48c3RvcCBvZmZzZXQ9IjAiIHN0b3AtY29sb3I9IiM1YTlmZDQiLz48c3RvcCBvZmZzZXQ9IjEiIHN0b3AtY29sb3I9IiMzMDY5OTgiLz48L2xpbmVhckdyYWRpZW50PjwvZGVmcz48cGF0aCBmaWxsPSJ1cmwoI3B5dGhvbl9zdmdfX2EpIiBkPSJNMjMuNzE3IDBhMzIuNjk3IDMyLjY5NyAwIDAgMC01LjQ3Mi40NjdjLTQuODQ2Ljg1Ny01LjcyNSAyLjY0OC01LjcyNSA1Ljk1M3Y0LjM2NGgxMS40NXYxLjQ1NUg4LjIyMmMtMy4zMjggMC02LjI0MyAyLTcuMTU0IDUuODA2LTEuMDUyIDQuMzYyLTEuMDk5IDcuMDgzIDAgMTEuNjM3LjgxNSAzLjM5MSAyLjc1NyA1LjgwNyA2LjA4NiA1LjgwN2gzLjkzN3YtNS4yMzRjMC0zLjc4IDMuMjctNy4xMTQgNy4xNTQtNy4xMTRoMTEuNDM4YzMuMTg0IDAgNS43MjUtMi42MiA1LjcyNS01LjgxOFY2LjQxOWMwLTMuMTA0LTIuNjE4LTUuNDM2LTUuNzI1LTUuOTUzYTM1LjcxNyAzNS43MTcgMCAwIDAtNS45NjctLjQ2N3ptLTYuMTkyIDMuNTFjMS4xODIgMCAyLjE0OC45ODMgMi4xNDggMi4xODlhMi4xNjQgMi4xNjQgMCAwIDEtMi4xNDggMi4xNzYgMi4xNjIgMi4xNjIgMCAwIDEtMi4xNS0yLjE3NmMwLTEuMjA3Ljk2Mi0yLjE4OCAyLjE1LTIuMTg4eiIgdHJhbnNmb3JtPSJ0cmFuc2xhdGUoLjAwMSAuMDAyKSBzY2FsZSguOTk5OTcpIi8+PHBhdGggZmlsbD0idXJsKCNweXRob25fc3ZnX19iKSIgZD0iTTM2LjgzNyAxMi4yMzl2NS4wODVjMCAzLjk0Mi0zLjM0MyA3LjI2Mi03LjE1MyA3LjI2MkgxOC4yNDZjLTMuMTM0IDAtNS43MjUgMi42OC01LjcyNSA1LjgxOHYxMC45MDRjMCAzLjEwNCAyLjY5OCA0LjkyOCA1LjcyNSA1LjgxOSAzLjYyNCAxLjA2NiA3LjEgMS4yNTggMTEuNDM4IDAgMi44ODMtLjgzNCA1LjcyNS0yLjUxNCA1LjcyNS01LjgxOXYtNC4zNjRIMjMuOTdWMzUuNDloMTcuMTY1YzMuMzI3IDAgNC41NjctMi4zMjIgNS43MjUtNS44MDYgMS4xOTYtMy41ODYgMS4xNDQtNy4wMzYgMC0xMS42MzctLjgyMi0zLjMxMy0yLjM5My01LjgwNy01LjcyNS01LjgwN3ptLTYuNDMzIDI3LjYxNGMxLjE4NiAwIDIuMTQ4Ljk3MyAyLjE0OCAyLjE3NSAwIDEuMjA4LS45NiAyLjE4OS0yLjE0OCAyLjE4OS0xLjE4MyAwLTIuMTQ5LS45ODMtMi4xNDktMi4xOSAwLTEuMjAxLjk2Ni0yLjE3NCAyLjE0OS0yLjE3NHoiIHRyYW5zZm9ybT0idHJhbnNsYXRlKC4wMDEgLjAwMikgc2NhbGUoLjk5OTk3KSIvPjwvc3ZnPg==" parent="1" vertex="1">
          <mxGeometry x="324" y="118" width="48" height="48" as="geometry" />
        </mxCell>
        <mxCell id="F0977GEZqvtjPTLdtmIW-3" value="" style="image;aspect=fixed;html=1;points=[];align=center;fontSize=12;image=img/lib/azure2/compute/Function_Apps.svg;" vertex="1" parent="1">
          <mxGeometry x="674.6700000000001" y="80" width="45.33" height="40" as="geometry" />
        </mxCell>
        <mxCell id="F0977GEZqvtjPTLdtmIW-5" value="&lt;b&gt;EDP&lt;/b&gt;" style="fillColor=none;strokeColor=#147EBA;dashed=1;verticalAlign=top;fontStyle=0;fontColor=#147EBA;whiteSpace=wrap;html=1;" vertex="1" parent="1">
          <mxGeometry x="160" y="360" width="600" height="280" as="geometry" />
        </mxCell>
        <mxCell id="F0977GEZqvtjPTLdtmIW-8" value="" style="fillColor=#EDF2FC;strokeColor=#6c8ebf;dashed=1;verticalAlign=top;fontStyle=0;whiteSpace=wrap;html=1;" vertex="1" parent="1">
          <mxGeometry x="280" y="400" width="360" height="200" as="geometry" />
        </mxCell>
        <mxCell id="F0977GEZqvtjPTLdtmIW-9" value="" style="image;aspect=fixed;html=1;points=[];align=center;fontSize=12;image=img/lib/azure2/analytics/Azure_Databricks.svg;" vertex="1" parent="1">
          <mxGeometry x="428.6" y="400" width="62.8" height="68" as="geometry" />
        </mxCell>
        <mxCell id="F0977GEZqvtjPTLdtmIW-12" value="" style="image;aspect=fixed;html=1;points=[];align=center;fontSize=12;image=img/lib/azure2/devops/Application_Insights.svg;" vertex="1" parent="1">
          <mxGeometry x="210" y="82.82" width="18.98" height="27.18" as="geometry" />
        </mxCell>
        <mxCell id="F0977GEZqvtjPTLdtmIW-14" value="" style="image;aspect=fixed;html=1;points=[];align=center;fontSize=12;image=img/lib/azure2/devops/Application_Insights.svg;" vertex="1" parent="1">
          <mxGeometry x="510" y="82.82" width="18.98" height="27.18" as="geometry" />
        </mxCell>
        <mxCell id="F0977GEZqvtjPTLdtmIW-15" value="" style="image;aspect=fixed;html=1;points=[];align=center;fontSize=12;image=img/lib/azure2/general/Resource_Groups.svg;" vertex="1" parent="1">
          <mxGeometry x="722.79" y="360" width="31.88" height="30" as="geometry" />
        </mxCell>
        <mxCell id="F0977GEZqvtjPTLdtmIW-16" value="" style="image;aspect=fixed;html=1;points=[];align=center;fontSize=12;image=img/lib/azure2/general/Resource_Groups.svg;" vertex="1" parent="1">
          <mxGeometry x="722.79" y="40" width="31.88" height="30" as="geometry" />
        </mxCell>
        <mxCell id="F0977GEZqvtjPTLdtmIW-17" value="&lt;b&gt;Azure@Shell&lt;/b&gt;" style="text;html=1;strokeColor=none;fillColor=none;align=center;verticalAlign=middle;whiteSpace=wrap;rounded=0;" vertex="1" parent="1">
          <mxGeometry x="694.67" y="330" width="60" height="30" as="geometry" />
        </mxCell>
        <mxCell id="F0977GEZqvtjPTLdtmIW-18" value="" style="image;sketch=0;aspect=fixed;html=1;points=[];align=center;fontSize=12;image=img/lib/mscae/Data_Lake.svg;" vertex="1" parent="1">
          <mxGeometry x="376" y="510" width="38" height="50" as="geometry" />
        </mxCell>
        <mxCell id="F0977GEZqvtjPTLdtmIW-19" value="" style="image;sketch=0;aspect=fixed;html=1;points=[];align=center;fontSize=12;image=img/lib/mscae/Data_Lake.svg;" vertex="1" parent="1">
          <mxGeometry x="510" y="510" width="38" height="50" as="geometry" />
        </mxCell>
        <mxCell id="F0977GEZqvtjPTLdtmIW-20" value="Landing Layer" style="text;html=1;strokeColor=none;fillColor=none;align=center;verticalAlign=middle;whiteSpace=wrap;rounded=0;" vertex="1" parent="1">
          <mxGeometry x="355.7" y="560" width="78.6" height="30" as="geometry" />
        </mxCell>
        <mxCell id="F0977GEZqvtjPTLdtmIW-21" value="Raw Layer" style="text;html=1;strokeColor=none;fillColor=none;align=center;verticalAlign=middle;whiteSpace=wrap;rounded=0;" vertex="1" parent="1">
          <mxGeometry x="489.7" y="560" width="78.6" height="30" as="geometry" />
        </mxCell>
        <mxCell id="F0977GEZqvtjPTLdtmIW-22" value="" style="endArrow=classic;html=1;rounded=0;exitX=1;exitY=0.5;exitDx=0;exitDy=0;entryX=0;entryY=0.48;entryDx=0;entryDy=0;entryPerimeter=0;" edge="1" parent="1" source="_tmj6KruEa42xJ_8e1n5-3" target="F0977GEZqvtjPTLdtmIW-18">
          <mxGeometry width="50" height="50" relative="1" as="geometry">
            <mxPoint x="389" y="350" as="sourcePoint" />
            <mxPoint x="439" y="300" as="targetPoint" />
            <Array as="points">
              <mxPoint x="440" y="142" />
              <mxPoint x="440" y="240" />
              <mxPoint x="320" y="240" />
              <mxPoint x="320" y="534" />
            </Array>
          </mxGeometry>
        </mxCell>
        <mxCell id="F0977GEZqvtjPTLdtmIW-23" value="" style="endArrow=classic;startArrow=classic;html=1;rounded=0;entryX=1.025;entryY=0.471;entryDx=0;entryDy=0;entryPerimeter=0;" edge="1" parent="1" source="F0977GEZqvtjPTLdtmIW-19" target="F0977GEZqvtjPTLdtmIW-9">
          <mxGeometry width="50" height="50" relative="1" as="geometry">
            <mxPoint x="460" y="360" as="sourcePoint" />
            <mxPoint x="510" y="310" as="targetPoint" />
            <Array as="points">
              <mxPoint x="529" y="432" />
            </Array>
          </mxGeometry>
        </mxCell>
        <mxCell id="F0977GEZqvtjPTLdtmIW-24" value="" style="endArrow=classic;startArrow=classic;html=1;rounded=0;exitX=0.395;exitY=-0.04;exitDx=0;exitDy=0;exitPerimeter=0;" edge="1" parent="1" source="F0977GEZqvtjPTLdtmIW-18">
          <mxGeometry width="50" height="50" relative="1" as="geometry">
            <mxPoint x="460" y="360" as="sourcePoint" />
            <mxPoint x="420" y="430" as="targetPoint" />
            <Array as="points">
              <mxPoint x="391" y="430" />
            </Array>
          </mxGeometry>
        </mxCell>
        <mxCell id="F0977GEZqvtjPTLdtmIW-25" value="" style="endArrow=classic;html=1;rounded=0;entryX=0;entryY=1;entryDx=0;entryDy=0;exitX=0.484;exitY=-0.044;exitDx=0;exitDy=0;exitPerimeter=0;" edge="1" parent="1" source="F0977GEZqvtjPTLdtmIW-9" target="XUqRLwptFIJzBR0-x4ax-6">
          <mxGeometry width="50" height="50" relative="1" as="geometry">
            <mxPoint x="460" y="360" as="sourcePoint" />
            <mxPoint x="510" y="310" as="targetPoint" />
            <Array as="points">
              <mxPoint x="459" y="380" />
              <mxPoint x="600" y="380" />
              <mxPoint x="600" y="160" />
            </Array>
          </mxGeometry>
        </mxCell>
      </root>
    </mxGraphModel>
  </diagram>
</mxfile>
